<svg width="162" height="28" viewBox="0 0 162 28" fill="none" xmlns="http://www.w3.org/2000/svg">
<g clip-path="url(#clip0_859_53154)">
<path d="M49.7367 3.15479H43.8496C43.0375 3.15479 42.2255 3.45056 41.718 4.04211C41.109 4.63367 40.8044 5.3238 40.8044 6.11254C40.8044 6.90126 41.109 7.59141 41.718 8.18298C42.327 8.7745 43.0375 9.07026 43.8496 9.07026H46.3872C46.3872 9.07026 46.3872 9.07026 46.4887 9.07026C46.8947 9.07026 47.3007 9.26746 47.6052 9.56322C47.9097 9.85898 48.1128 10.2534 48.1128 10.7463C48.1128 11.2393 47.9097 11.6337 47.6052 11.9295C47.3007 12.2252 46.8947 12.4224 46.3872 12.4224H40.906C40.8044 12.4224 40.8044 12.521 40.8044 12.521V13.9013C40.8044 13.9999 40.906 13.9999 40.906 13.9999H46.3872C47.3007 13.9999 48.1128 13.7041 48.8233 13.0139C49.5338 12.3238 49.8383 11.5351 49.8383 10.6478C49.8383 9.76042 49.5338 8.9717 48.8233 8.28154C48.1128 7.59141 47.3007 7.29563 46.3872 7.29563H43.8496C43.4436 7.29563 43.139 7.19704 42.936 6.90126C42.6315 6.6055 42.53 6.30972 42.53 6.01395C42.53 5.61958 42.6315 5.3238 42.936 5.12662C43.2405 4.83084 43.5451 4.73226 43.8496 4.73226H49.7367C49.8383 4.73226 49.8383 4.63367 49.8383 4.63367V3.25338L49.7367 3.15479Z" fill="#CC1719"/>
<path d="M66.079 3.15479H64.4549C64.3535 3.15479 64.3535 3.15478 64.3535 3.25338L61.6128 9.85898L59.7858 5.22521L58.9738 3.25338C58.9738 3.15478 58.9738 3.15479 58.8723 3.15479C58.7708 3.15479 58.7708 3.15478 58.7708 3.25338L56.0301 9.85898L53.3911 3.25338L53.2896 3.15479H51.6655C51.6655 3.15479 51.564 3.15478 51.564 3.25338V3.35197L55.9286 14.0984C55.9286 14.1971 56.1316 14.1971 56.1316 14.0984L58.7708 7.59141L61.4098 14.0984L61.5113 14.1971C61.6128 14.1971 61.6128 14.1971 61.6128 14.0984L66.079 3.35197V3.25338C66.079 3.15478 66.079 3.15479 66.079 3.15479Z" fill="#CC1719"/>
<path d="M69.9361 3.15479H68.5151C68.4136 3.15479 68.4136 3.25338 68.4136 3.25338V13.9999C68.4136 14.0984 68.5151 14.0984 68.5151 14.0984H69.9361C70.0376 14.0984 70.0376 13.9999 70.0376 13.9999V3.25338L69.9361 3.15479Z" fill="#CC1719"/>
<path d="M81.3044 3.15479H75.4172C74.6051 3.15479 73.7931 3.45056 73.2856 4.04211C72.6766 4.63367 72.3721 5.3238 72.3721 6.11254C72.3721 6.90126 72.6766 7.59141 73.2856 8.18298C73.8946 8.7745 74.6051 9.07026 75.4172 9.07026H77.9548C77.9548 9.07026 77.9548 9.07026 78.0563 9.07026C78.4623 9.07026 78.8683 9.26746 79.1728 9.56322C79.4774 9.85898 79.6804 10.2534 79.6804 10.7463C79.6804 11.2393 79.4774 11.6337 79.1728 11.9295C78.8683 12.2252 78.4623 12.4224 77.9548 12.4224H72.4736C72.3721 12.4224 72.3721 12.521 72.3721 12.521V13.9013C72.3721 13.9999 72.4736 13.9999 72.4736 13.9999H77.9548C78.8683 13.9999 79.6804 13.7041 80.3909 13.0139C81.1014 12.3238 81.4059 11.5351 81.4059 10.6478C81.4059 9.76042 81.1014 8.9717 80.3909 8.28154C79.6804 7.59141 78.8683 7.29563 77.9548 7.29563H75.4172C75.0112 7.29563 74.7067 7.19704 74.5036 6.90126C74.1992 6.80267 74.0977 6.50691 74.0977 6.11254C74.0977 5.71817 74.1992 5.42239 74.5036 5.22521C74.8082 4.92943 75.1127 4.83085 75.4172 4.83085H81.3044C81.4059 4.83085 81.4059 4.73226 81.4059 4.73226V3.25338C81.4059 3.25338 81.4059 3.15479 81.3044 3.15479Z" fill="#CC1719"/>
<path d="M92.3686 3.15479H86.4812C85.6696 3.15479 84.8572 3.45056 84.35 4.04211C83.7403 4.63367 83.4358 5.3238 83.4358 6.11254C83.4358 6.90126 83.7403 7.59141 84.35 8.18298C84.9589 8.7745 85.6696 9.07026 86.4812 9.07026H89.0187C89.0187 9.07026 89.0187 9.07026 89.1204 9.07026C89.5267 9.07026 89.9321 9.26746 90.2365 9.56322C90.541 9.85898 90.7445 10.2534 90.7445 10.7463C90.7445 11.2393 90.541 11.6337 90.2365 11.9295C89.9321 12.2252 89.5267 12.4224 89.0187 12.4224H83.5375C83.4358 12.4224 83.4358 12.521 83.4358 12.521V13.9013C83.4358 13.9999 83.5375 13.9999 83.5375 13.9999H89.0187C89.9321 13.9999 90.7445 13.7041 91.4552 13.0139C92.1651 12.3238 92.4703 11.5351 92.4703 10.6478C92.4703 9.76042 92.1651 8.9717 91.4552 8.28154C90.7445 7.59141 89.9321 7.29563 89.0187 7.29563H86.4812C86.075 7.29563 85.7705 7.19704 85.5678 6.90126C85.2634 6.6055 85.1616 6.30972 85.1616 6.01395C85.1616 5.61958 85.2634 5.3238 85.5678 5.12662C85.8723 4.83084 86.1768 4.73226 86.4812 4.73226H92.3686C92.4703 4.73226 92.4703 4.63367 92.4703 4.63367V3.25338C92.5713 3.25338 92.4703 3.15479 92.3686 3.15479Z" fill="#CC1719"/>
<path d="M112.669 12.4225H107.188C106.072 12.4225 105.158 12.0281 104.448 11.3379C103.635 10.6478 103.331 9.66191 103.331 8.67599C103.331 7.59145 103.737 6.70412 104.448 6.01399C105.158 5.32384 106.173 4.92947 107.188 4.92947C107.899 4.92947 108.609 5.12666 109.218 5.52103C109.827 5.91539 110.334 6.40835 110.639 6.9999L110.74 7.09849H112.365C112.365 7.09849 112.466 7.09849 112.466 6.9999V6.90131C112.06 5.8168 111.349 4.92948 110.436 4.23934C109.421 3.54919 108.406 3.25342 107.188 3.25342C105.666 3.25342 104.244 3.74638 103.229 4.83089C102.113 5.91539 101.605 7.19708 101.605 8.67599C101.605 10.1549 102.113 11.5351 103.229 12.521C104.346 13.6055 105.666 14.0985 107.188 14.0985H112.669C112.771 14.0985 112.771 13.9999 112.771 13.9999V12.6196C112.771 12.521 112.669 12.4225 112.669 12.4225Z" fill="#CC1719"/>
<path d="M121.703 12.4224H120.282C119.165 12.4224 118.252 12.028 117.541 11.3379C116.83 10.6478 116.425 9.66186 116.425 8.67594V3.25338C116.425 3.15478 116.323 3.15479 116.323 3.15479H114.699C114.597 3.15479 114.597 3.25338 114.597 3.25338V8.5773C114.597 10.0562 115.105 11.4365 116.221 12.4224C117.338 13.5069 118.658 13.9999 120.18 13.9999H121.602C121.703 13.9999 121.703 13.9013 121.703 13.9013V12.521C121.804 12.521 121.703 12.4224 121.703 12.4224Z" fill="#CC1719"/>
<path d="M125.865 3.35205H124.444C124.342 3.35205 124.342 3.45064 124.342 3.45064V14.1972C124.342 14.2957 124.444 14.2957 124.444 14.2957H125.865C125.966 14.2957 125.966 14.1972 125.966 14.1972V3.45064C125.966 3.35205 125.966 3.35205 125.865 3.35205Z" fill="#CC1719"/>
<path d="M137.842 3.15479H136.421C136.319 3.15479 136.319 3.25338 136.319 3.25338V10.0562L129.214 3.15479H129.112L129.011 3.25338V13.9999C129.011 14.0984 129.112 14.0984 129.112 14.0984H130.534C130.636 14.0984 130.636 13.9999 130.636 13.9999V6.99986L137.741 13.9999H137.842L137.943 13.9013V3.25338C137.943 3.25338 137.943 3.15479 137.842 3.15479Z" fill="#CC1719"/>
<path d="M142.309 3.35205H140.887C140.785 3.35205 140.785 3.45064 140.785 3.45064V14.1972C140.785 14.2957 140.887 14.2957 140.887 14.2957H142.309C142.409 14.2957 142.409 14.1972 142.409 14.1972V3.45064C142.511 3.35205 142.409 3.35205 142.309 3.35205Z" fill="#CC1719"/>
<path d="M156.011 12.4225H150.53C149.414 12.4225 148.5 12.0281 147.79 11.3379C146.977 10.6478 146.673 9.66191 146.673 8.67599C146.673 7.59145 147.079 6.70412 147.79 6.01399C148.5 5.32384 149.516 4.92947 150.53 4.92947C151.241 4.92947 151.951 5.12666 152.56 5.52103C153.169 5.91539 153.677 6.40835 153.981 6.9999L154.082 7.09849H155.707C155.707 7.09849 155.808 7.09849 155.808 6.9999V6.90131C155.402 5.8168 154.692 4.92948 153.778 4.23934C152.763 3.54919 151.749 3.25342 150.53 3.25342C149.008 3.25342 147.586 3.74638 146.572 4.83089C145.455 5.91539 144.948 7.19708 144.948 8.67599C144.948 10.1549 145.455 11.5351 146.572 12.521C147.688 13.6055 149.008 14.0985 150.53 14.0985H156.011C156.113 14.0985 156.113 13.9999 156.113 13.9999V12.6196C156.113 12.521 156.011 12.4225 156.011 12.4225Z" fill="#CC1719"/>
<path d="M35.9323 21.3945C36.5413 21.3945 36.9474 21.8875 36.9474 22.3805C36.9474 22.972 36.4398 23.3664 35.9323 23.3664C35.3233 23.3664 34.9173 22.8734 34.9173 22.3805C34.8158 21.8875 35.3233 21.3945 35.9323 21.3945Z" fill="#1D1D1B"/>
<path d="M41.312 19.8169H42.0225L43.8496 24.4507L45.5751 19.8169H46.2857V25.1408H45.7782V20.5071L44.0526 25.1408H43.6466L41.8195 20.5071V25.1408H41.312V19.8169Z" fill="#1D1D1B"/>
<path d="M47.9097 19.8169H51.4624V20.2113H48.4172V22.1831H51.2593V22.5775H48.4172V24.6479H51.5638V25.0423H47.9097V19.8169Z" fill="#1D1D1B"/>
<path d="M54.5076 19.8169C55.1166 19.8169 55.7256 19.8169 56.1317 20.1127C56.7407 20.5071 57.1467 21.2958 57.1467 22.4789C57.1467 23.662 56.7407 24.5493 56.0302 24.9437C55.6241 25.1408 55.1166 25.1408 54.4061 25.1408H52.8835V19.8169H54.2031H54.5076ZM54.4061 24.6479C55.0151 24.6479 55.4212 24.6479 55.8271 24.4507C56.4361 24.155 56.6392 23.4648 56.6392 22.4789C56.6392 21.493 56.3346 20.8028 55.8271 20.5071C55.4212 20.3099 55.0151 20.3099 54.3046 20.3099H53.2895V24.6479H54.4061Z" fill="#1D1D1B"/>
<path d="M58.5676 19.8169H59.0751V25.1408H58.5676V19.8169Z" fill="#1D1D1B"/>
<path d="M65.0638 23.3661C64.9623 24.5492 64.1503 25.2394 62.9322 25.2394C61.5112 25.2394 60.5977 24.1549 60.5977 22.4788C60.5977 20.7042 61.5112 19.7183 63.0338 19.7183C64.2518 19.7183 65.0638 20.4084 65.1653 21.3943H64.6578C64.5563 20.6055 63.9472 20.1126 63.0338 20.1126C61.9172 20.1126 61.2067 20.9014 61.2067 22.4788C61.2067 23.9577 61.9172 24.845 63.1353 24.845C64.1503 24.845 64.7593 24.352 64.7593 23.3661H65.0638Z" fill="#1D1D1B"/>
<path d="M67.8045 19.8169H68.4136L70.4436 25.1408H69.9361L69.327 23.5634H66.8909L66.2819 25.1408H65.7744L67.8045 19.8169ZM69.2255 22.9719L68.2105 20.2113L67.1955 22.9719H69.2255Z" fill="#1D1D1B"/>
<path d="M71.4587 19.8169H71.9662V24.6479H74.8083V25.0423H71.4587V19.8169Z" fill="#1D1D1B"/>
<path d="M78.4623 23.4647C78.4623 24.2534 78.9699 24.7463 79.9849 24.7463C80.8984 24.7463 81.3045 24.3519 81.3045 23.6619C81.3045 22.9717 80.8984 22.7745 80.0864 22.5773L79.5789 22.4787C78.5638 22.183 78.0564 21.8872 78.0564 20.9999C78.0564 20.1126 78.7669 19.6196 79.8834 19.6196C80.9999 19.6196 81.7106 20.2111 81.7106 21.1971H81.203C81.203 20.4083 80.6954 20.0139 79.8834 20.0139C79.0713 20.0139 78.6654 20.4083 78.6654 20.9999C78.6654 21.4928 78.9699 21.7886 79.5789 21.8872L80.1879 22.0843C81.4059 22.3802 81.9133 22.7745 81.9133 23.6619C81.9133 24.6478 81.203 25.2393 79.9849 25.2393C78.6654 25.2393 77.9548 24.6478 77.9548 23.5632H78.4623V23.4647Z" fill="#1D1D1B"/>
<path d="M83.1313 19.8169H86.684V20.2113H83.6393V22.1831H86.4813V22.5775H83.6393V24.6479H86.7857V25.0423H83.1313V19.8169Z" fill="#1D1D1B"/>
<path d="M88.1052 19.8169H89.932C90.5417 19.8169 90.9471 19.8169 91.3534 20.0141C91.7596 20.2113 92.0641 20.7043 92.0641 21.1972C92.0641 21.8873 91.7596 22.2817 91.1507 22.4789C91.7596 22.6761 91.7596 23.0704 91.8605 23.662L91.9623 24.4507C91.9623 24.7465 92.0641 24.8451 92.1658 24.9437V25.0423H91.6578C91.5561 24.9437 91.5561 24.7465 91.5561 24.4507L91.3534 23.8591C91.2516 22.9719 91.1507 22.7747 90.2373 22.7747H88.6132V25.1408H88.1052V19.8169ZM90.0338 22.2817C91.0489 22.2817 91.4551 21.9859 91.4551 21.1972C91.4551 20.8028 91.3534 20.6056 91.0489 20.4085C90.7444 20.2113 90.44 20.2113 90.0338 20.2113H88.6132V22.2817H90.0338Z" fill="#1D1D1B"/>
<path d="M92.7747 19.8169H93.2818L94.9059 24.4507L96.53 19.8169H97.0379L95.1086 25.1408H94.6014L92.7747 19.8169Z" fill="#1D1D1B"/>
<path d="M98.1541 19.8169H98.6612V25.1408H98.1541V19.8169Z" fill="#1D1D1B"/>
<path d="M104.65 23.3661C104.549 24.5492 103.737 25.2394 102.519 25.2394C101.098 25.2394 100.184 24.1549 100.184 22.4788C100.184 20.7042 101.098 19.7183 102.62 19.7183C103.839 19.7183 104.65 20.4084 104.752 21.3943H104.244C104.143 20.6055 103.533 20.1126 102.62 20.1126C101.504 20.1126 100.793 20.9014 100.793 22.4788C100.793 23.9577 101.504 24.845 102.722 24.845C103.737 24.845 104.346 24.352 104.346 23.3661H104.65Z" fill="#1D1D1B"/>
<path d="M105.97 19.8169H109.523V20.2113H106.477V22.1831H109.32V22.5775H106.477V24.6479H109.624V25.0423H105.97V19.8169Z" fill="#1D1D1B"/>
<path d="M111.147 23.4647C111.147 24.2534 111.654 24.7463 112.669 24.7463C113.582 24.7463 113.988 24.3519 113.988 23.6619C113.988 22.9717 113.582 22.7745 112.771 22.5773L112.263 22.4787C111.248 22.183 110.74 21.8872 110.74 20.9999C110.74 20.1126 111.451 19.6196 112.568 19.6196C113.684 19.6196 114.395 20.2111 114.395 21.1971H113.887C113.887 20.4083 113.38 20.0139 112.568 20.0139C111.755 20.0139 111.349 20.4083 111.349 20.9999C111.349 21.4928 111.654 21.7886 112.263 21.8872L112.872 22.0843C114.09 22.3802 114.597 22.7745 114.597 23.6619C114.597 24.6478 113.887 25.2393 112.669 25.2393C111.349 25.2393 110.639 24.6478 110.639 23.5632H111.147V23.4647Z" fill="#1D1D1B"/>
<path d="M122.617 23.3661C122.515 24.5492 121.703 25.2394 120.485 25.2394C119.064 25.2394 118.15 24.1549 118.15 22.4788C118.15 20.7042 119.064 19.7183 120.587 19.7183C121.805 19.7183 122.617 20.4084 122.718 21.3943H122.211C122.109 20.6055 121.5 20.1126 120.587 20.1126C119.47 20.1126 118.759 20.9014 118.759 22.4788C118.759 23.9577 119.47 24.845 120.688 24.845C121.703 24.845 122.312 24.352 122.312 23.3661H122.617Z" fill="#1D1D1B"/>
<path d="M126.17 19.6196C127.692 19.6196 128.707 20.7041 128.707 22.3802C128.707 24.1548 127.692 25.1407 126.17 25.1407C124.646 25.1407 123.631 24.0562 123.631 22.3802C123.733 20.7041 124.748 19.6196 126.17 19.6196ZM126.17 24.7463C127.387 24.7463 128.199 23.8591 128.199 22.3802C128.199 20.9013 127.387 20.0139 126.17 20.0139C124.951 20.0139 124.139 20.9013 124.139 22.3802C124.241 23.9576 125.053 24.7463 126.17 24.7463Z" fill="#1D1D1B"/>
<path d="M130.027 19.8169H130.736L132.564 24.4507L134.29 19.8169H135V25.1408H134.493V20.5071L132.767 25.1408H132.26L130.432 20.5071V25.1408H129.925V19.8169H130.027Z" fill="#1D1D1B"/>
<path d="M136.624 19.8169H138.552C139.771 19.8169 140.38 20.3099 140.38 21.2958C140.38 22.2817 139.669 22.7747 138.35 22.7747H137.233V25.0423H136.726V19.8169H136.624ZM138.35 22.3803C139.365 22.3803 139.872 22.0845 139.872 21.2958C139.872 20.6056 139.467 20.2113 138.552 20.2113H137.132V22.3803H138.35Z" fill="#1D1D1B"/>
<path d="M143.019 19.8169H143.628L145.657 25.1408H145.15L144.541 23.5634H142.105L141.496 25.1408H140.989L143.019 19.8169ZM144.44 22.9719L143.424 20.2113L142.41 22.9719H144.44Z" fill="#1D1D1B"/>
<path d="M146.673 19.8169H147.181L150.225 24.3521V19.8169H150.733V25.1408H150.225L147.181 20.6056V25.1408H146.673V19.8169Z" fill="#1D1D1B"/>
<path d="M153.677 22.7747L151.749 19.8169H152.357L153.982 22.2817L155.606 19.8169H156.215L154.286 22.7747V25.1408H153.778V22.7747H153.677Z" fill="#1D1D1B"/>
<path d="M160.985 21.3945C161.594 21.3945 162 21.8875 162 22.3805C162 22.972 161.493 23.3664 160.985 23.3664C160.376 23.3664 159.97 22.8734 159.97 22.3805C159.869 21.8875 160.376 21.3945 160.985 21.3945Z" fill="#1D1D1B"/>
<path d="M28.827 14C28.827 21.6902 22.3308 28 14.4135 28C6.49624 28 0 21.7887 0 14C0 6.30986 6.49624 0 14.4135 0C22.4324 0 28.827 6.30986 28.827 14Z" fill="#CC1719"/>
<path d="M25.5789 12.028H16.4436V3.15479H12.3834V12.028H3.24805V15.9717H12.3834V24.8449H16.4436V15.9717H25.5789V12.028Z" fill="white"/>
</g>
<defs>
<clipPath id="clip0_859_53154">
<rect width="162" height="28" fill="white"/>
</clipPath>
</defs>
</svg>
