<svg width="3" height="13" viewBox="0 0 3 13" fill="none" xmlns="http://www.w3.org/2000/svg">
<path d="M0.00464907 0.964059L0.206988 7.61759C0.206988 8.22658 0.56207 8.53209 1.17104 8.53209H1.8336C2.44259 8.53209 2.79766 8.2266 2.79766 7.61759L3 0.964059C3 0.355074 2.69451 0 2.08551 0H0.9171C0.310096 0 -0.0449748 0.355084 0.00458902 0.964059H0.00464907Z" fill="#CC1719"/>
<path d="M1.93511 9.75H1.12177C0.512786 9.75 0.157715 10.0555 0.157715 10.7141V11.4242C0.157715 12.0332 0.463202 12.3883 1.12177 12.3883H1.93511C2.54409 12.3883 2.89916 12.0828 2.89916 11.4242V10.7141C2.84957 10.1051 2.54408 9.75 1.93511 9.75Z" fill="#CC1719"/>
</svg>
