<svg width="25" height="24" viewBox="0 0 25 24" fill="none" xmlns="http://www.w3.org/2000/svg">
<path d="M18.7666 3.81779V1H16.6665V3.80001H13.5165V1H11.4165V3.80001H8.26652V1H6.16652V3.81779C4.18407 3.99826 2.66787 5.65939 2.6665 7.64995V18.15C2.6665 20.276 4.39054 22 6.51652 22H18.4166C20.5425 22 22.2666 20.276 22.2666 18.15V7.64995C22.2652 5.65932 20.749 3.99804 18.7666 3.81779ZM20.1666 18.15C20.1666 18.6135 19.982 19.0592 19.6539 19.3873C19.3258 19.7154 18.8801 19.9 18.4166 19.9H6.51652C5.54992 19.9 4.76651 19.1166 4.76651 18.15V7.64995C4.76651 6.68335 5.54992 5.89995 6.51652 5.89995H18.4166C18.88 5.89995 19.3258 6.08452 19.6539 6.41263C19.982 6.74074 20.1666 7.18645 20.1666 7.64995V18.15Z" fill="black"/>
<path d="M8.2666 9.40039H16.6666V11.5004H8.2666V9.40039Z" fill="black"/>
</svg>
