<svg width="28" height="27" viewBox="0 0 28 27" fill="none" xmlns="http://www.w3.org/2000/svg">
<path opacity="0.3" d="M13.8888 5.20551L8.99091 10.7942C8.5817 11.2612 7.85188 11.3242 7.36082 10.9351C6.86976 10.546 6.80341 9.85206 7.21263 9.38512L12.9997 2.78186C13.4624 2.25387 14.3152 2.25387 14.7779 2.78186L20.565 9.38512C20.9742 9.85206 20.9078 10.546 20.4168 10.9351C19.9257 11.3242 19.1959 11.2612 18.7867 10.7942L13.8888 5.20551Z" fill="#B5B5C3"/>
<path fill-rule="evenodd" clip-rule="evenodd" d="M5.5944 10.0897C4.86931 10.0897 4.38526 10.8372 4.68194 11.4988L8.46452 19.934C8.94814 21.0125 10.0199 21.7065 11.2019 21.7065H16.5759C17.7579 21.7065 18.8298 21.0124 19.3134 19.9338L23.0951 11.4988C23.3917 10.8372 22.9076 10.0897 22.1826 10.0897H5.5944ZM16.2037 16.6929C16.2037 17.9085 15.1673 18.894 13.8889 18.894C12.6104 18.894 11.5741 17.9085 11.5741 16.6929C11.5741 15.4773 12.6104 14.4918 13.8889 14.4918C15.1673 14.4918 16.2037 15.4773 16.2037 16.6929Z" fill="#B5B5C3"/>
</svg>
