<svg width="27" height="21" viewBox="0 0 27 21" fill="none" xmlns="http://www.w3.org/2000/svg">
<path fill-rule="evenodd" clip-rule="evenodd" d="M22.2048 17.7607C22.5239 18.0641 23.051 17.8368 23.0493 17.3965L23.0312 12.5611V4.83798C23.0312 3.4162 21.8191 2.26361 20.3238 2.26361H7.68932C6.19407 2.26361 4.98193 3.4162 4.98193 4.83798V8.37774H12.5253C14.1821 8.37774 15.5253 9.72089 15.5253 11.3777V15.1355H19.4439L22.2048 17.7607Z" fill="#B5B5C3"/>
<path opacity="0.3" fill-rule="evenodd" clip-rule="evenodd" d="M0.505859 17.5489V12.4538C0.505859 11.3282 1.46547 10.4158 2.64921 10.4158H11.2226C12.4064 10.4158 13.366 11.3282 13.366 12.4538V17.5489C13.366 18.6745 12.4064 19.587 11.2226 19.587H2.77324L1.37043 20.8637C1.04931 21.1559 0.533886 20.9281 0.533886 20.4939V17.8794C0.515446 17.7718 0.505859 17.6614 0.505859 17.5489ZM4.80857 13.9728C4.80857 13.6967 5.03242 13.4728 5.30857 13.4728H10.7386C11.0148 13.4728 11.2386 13.6967 11.2386 13.9728V13.9919C11.2386 14.268 11.0148 14.4919 10.7386 14.4919H5.30857C5.03242 14.4919 4.80857 14.268 4.80857 13.9919V13.9728ZM8.52359 15.5109C8.24745 15.5109 8.02359 15.7347 8.02359 16.0109V16.0299C8.02359 16.306 8.24745 16.5299 8.52359 16.5299H10.7386C11.0148 16.5299 11.2386 16.306 11.2386 16.0299V16.0109C11.2386 15.7347 11.0148 15.5109 10.7386 15.5109H8.52359Z" fill="#B5B5C3"/>
</svg>
