<svg width="17" height="13" viewBox="0 0 17 13" fill="none" xmlns="http://www.w3.org/2000/svg">
<path d="M15.2727 0.00075093C14.8825 0.0136416 14.5122 0.178876 14.2415 0.460111C11.3364 3.37221 8.68549 6.23631 5.87899 9.09441L2.43829 6.34755C2.12773 6.09912 1.73047 5.98428 1.33555 6.02763C0.939457 6.07216 0.577357 6.27138 0.328897 6.58194C-0.189083 7.23 -0.0836027 8.17335 0.563272 8.6913L5.06327 12.2913C5.66093 12.7682 6.51992 12.719 7.06013 12.1788C10.2911 8.9409 13.1915 5.7546 16.3601 2.5788C16.8055 2.14872 16.9402 1.48779 16.7 0.917071C16.4586 0.346381 15.8926 -0.0180889 15.2726 0.000661093L15.2727 0.00075093Z" fill="black"/>
</svg>
