<svg width="16" height="20" viewBox="0 0 16 20" fill="none" xmlns="http://www.w3.org/2000/svg">
<path fill-rule="evenodd" clip-rule="evenodd" d="M12.9343 8.08118C12.9353 8.03933 12.9353 7.99748 12.9353 7.95655V4.98036C12.9353 2.24036 10.7143 0.0194092 7.97528 0.0194092C5.23528 0.0194092 3.01528 2.24039 3.01528 4.98036V7.95655C3.01528 7.99748 3.01528 8.03933 3.01621 8.08118C1.30397 8.52111 0.0390625 10.0752 0.0390625 11.9243V15.8928C0.0390625 18.0841 1.81547 19.8614 4.00668 19.8614H11.9438C14.135 19.8614 15.9114 18.0841 15.9114 15.8928V11.9243C15.9114 10.0753 14.6466 8.52118 12.9343 8.08118ZM10.9515 7.95655V4.98036C10.9515 3.33603 9.61868 2.00417 7.97528 2.00417C6.33187 2.00417 4.99908 3.33603 4.99908 4.98036V7.95655H10.9515ZM13.9277 11.9242C13.9277 10.8286 13.0394 9.94036 11.9438 9.94036H4.0067C2.91108 9.94036 2.02289 10.8286 2.02289 11.9242V15.8927C2.02289 16.9884 2.91111 17.8766 4.0067 17.8766H11.9438C13.0395 17.8766 13.9277 16.9883 13.9277 15.8927V11.9242Z" fill="black"/>
<path d="M6.98285 13.6989C6.98285 13.1511 7.42742 12.7066 7.97523 12.7066C8.52304 12.7066 8.96761 13.1511 8.96761 13.6989V14.6913C8.96761 15.2391 8.52304 15.6828 7.97523 15.6828C7.42742 15.6828 6.98285 15.2391 6.98285 14.6913V13.6989Z" fill="black"/>
</svg>
