<svg width="12" height="12" viewBox="0 0 12 12" fill="none" xmlns="http://www.w3.org/2000/svg">
<path fill-rule="evenodd" clip-rule="evenodd" d="M6.00016 1C3.23872 1 1 3.23872 1 6.00016C1 8.7616 3.23872 11.0003 6.00016 11.0003C8.7616 11.0003 11.0003 8.7616 11.0003 6.00016C11.0003 3.23872 8.7616 1 6.00016 1V1ZM4.14676 4.14676C4.34176 3.95129 4.65863 3.95129 4.85363 4.14676L6.0002 5.29332L7.14676 4.14676C7.34176 3.95129 7.65863 3.95129 7.85363 4.14676C8.0491 4.34176 8.0491 4.65863 7.85363 4.85363L6.70707 6.0002L7.85363 7.14676C8.0491 7.34176 8.0491 7.65863 7.85363 7.85363C7.65863 8.0491 7.34176 8.0491 7.14676 7.85363L6.0002 6.70707L4.85363 7.85363C4.65863 8.0491 4.34176 8.0491 4.14676 7.85363C3.95129 7.65863 3.95129 7.34176 4.14676 7.14676L5.29332 6.0002L4.14676 4.85363C3.95129 4.65863 3.95129 4.34176 4.14676 4.14676V4.14676Z" fill="#B82627"/>
</svg>
