<svg width="12" height="12" viewBox="0 0 12 12" fill="none" xmlns="http://www.w3.org/2000/svg">
<g clip-path="url(#clip0_3916_301621)">
<path d="M6 0C2.69988 0 0 2.69988 0 6C0 9.30012 2.69988 12 6 12C9.30012 12 12 9.30012 12 6C12 2.69988 9.30012 0 6 0ZM2.57131 4.28607C2.57131 3.81439 2.95701 3.42869 3.42869 3.42869C3.90037 3.42869 4.28607 3.81439 4.28607 4.28607C4.28607 4.75775 3.90037 5.14344 3.42869 5.14344C2.95701 5.14264 2.57131 4.75695 2.57131 4.28607ZM8.87102 8.61389C8.09963 9.38529 7.02852 9.81356 6 9.81356C4.97148 9.81356 3.90037 9.42787 3.12898 8.61389C2.95782 8.44274 2.95782 8.18561 3.12898 8.01365C3.30013 7.84249 3.55725 7.84249 3.72922 8.01365C4.9723 9.25672 7.02935 9.25672 8.2716 8.01365C8.44275 7.84249 8.69988 7.84249 8.87185 8.01365C9.043 8.1856 9.043 8.44273 8.87104 8.61389H8.87102ZM8.57131 5.14262C8.09963 5.14262 7.71393 4.75693 7.71393 4.28524C7.71393 3.81356 8.09963 3.42787 8.57131 3.42787C9.04299 3.42787 9.42869 3.81356 9.42869 4.28524C9.42869 4.75693 9.04299 5.14262 8.57131 5.14262Z" fill="#EC5B6E"/>
</g>
<defs>
<clipPath id="clip0_3916_301621">
<rect width="12" height="12" fill="white"/>
</clipPath>
</defs>
</svg>
