<svg width="12" height="12" viewBox="0 0 12 12" fill="none" xmlns="http://www.w3.org/2000/svg">
<path d="M3.10969 11.4687C2.73565 11.4704 2.37631 11.3227 2.11092 11.059C1.8461 10.7947 1.69727 10.4365 1.69727 10.0625V5.99383C1.70009 5.31647 2.18392 4.73645 2.84995 4.61196L3.28454 4.5333V2.61386C3.28624 2.05703 3.51032 1.52342 3.907 1.13233C4.30368 0.741318 4.84013 0.525152 5.39693 0.531381H6.66449C7.21112 0.541001 7.73229 0.764525 8.11602 1.15385C8.49968 1.54317 8.71528 2.06717 8.71697 2.61378C8.71528 2.06206 8.49572 1.53297 8.10526 1.14313C7.71537 0.752675 7.18627 0.533119 6.6346 0.53141H5.39703C4.8402 0.525185 4.30376 0.741347 3.9071 1.13236C3.51042 1.52338 3.28633 2.057 3.28464 2.61389V4.58765H8.71703V4.53333L9.15162 4.61199C9.81539 4.73874 10.2958 5.3182 10.2987 5.99386V10.0625C10.2987 10.8389 9.66883 11.4687 8.8919 11.4687L3.10969 11.4687ZM4.97481 10.316H7.02724V8.86735H7.02667C7.48504 8.51311 7.72836 7.94723 7.67007 7.37061C7.61179 6.79398 7.26038 6.28866 6.74034 6.03345C6.2203 5.77768 5.6052 5.80879 5.11352 6.11493C4.62177 6.42164 4.32299 6.95978 4.32299 7.53924C4.32016 8.05985 4.56122 8.55102 4.97488 8.86735L4.97481 10.316Z" fill="#5AA9C5"/>
<path d="M8.95833 5.11278H9.05509H9.05452C9.47044 5.19087 9.77148 5.55304 9.77318 5.97574V10.0444C9.77318 10.2781 9.68038 10.5022 9.51515 10.6674C9.34935 10.8326 9.12526 10.9254 8.89155 10.9254H3.10946C2.6228 10.9254 2.22783 10.531 2.22783 10.0444V5.99384C2.22953 5.57113 2.53057 5.20897 2.94649 5.13089H8.95833M4.44945 9.10277V10.8411H7.55214L7.55158 9.10277C7.97258 8.69195 8.20798 8.1272 8.20346 7.53925C8.20346 6.75212 7.78359 6.02499 7.10227 5.63111C6.42039 5.23783 5.58062 5.23783 4.89874 5.63111C4.21743 6.02496 3.79755 6.75211 3.79755 7.53925C3.79302 8.1272 4.02843 8.69193 4.44943 9.10277M6.63427 0.000104463H5.3967C4.69898 -0.00612019 4.02729 0.26606 3.531 0.756685C3.03472 1.2473 2.75461 1.91616 2.75292 2.61384V4.09246C1.83734 4.26392 1.17303 5.06237 1.17188 5.9938V10.0624C1.17188 11.1325 2.03936 12 3.10943 12H8.8921H8.89154C9.40535 12 9.89822 11.7957 10.2615 11.4324C10.6254 11.0691 10.8291 10.5763 10.8291 10.0624V5.9938C10.8274 5.06068 10.1597 4.26109 9.24182 4.09246V2.61384C9.24012 1.92235 8.9651 1.25913 8.47676 0.769722C7.98841 0.280242 7.32578 0.00352329 6.63424 0.000133475L6.63427 0.000104463ZM3.80942 4.05629V2.61388C3.81112 2.19627 3.97976 1.7962 4.27797 1.50363C4.57619 1.21108 4.97908 1.05037 5.39671 1.0566H6.66427C7.52214 1.05999 8.21591 1.75601 8.21591 2.61388V4.05629H3.80942ZM5.50534 9.78464V8.57764C5.02266 8.34619 4.76348 7.81144 4.88231 7.28914C5.00058 6.76684 5.46459 6.39619 6.00049 6.39619C6.53638 6.39619 7.00038 6.76684 7.11866 7.28914C7.2375 7.81145 6.97833 8.3462 6.49563 8.57764V9.78464H5.50534Z" fill="#5AA9C5"/>
</svg>
