<svg width="12" height="12" viewBox="0 0 12 12" fill="none" xmlns="http://www.w3.org/2000/svg">
<g clip-path="url(#clip0_3916_301624)">
<path d="M5.16529 5.19049C5.16529 5.26353 5.13398 5.33136 5.08181 5.38092L2.78613 7.52785C2.73656 7.5748 2.67395 7.59828 2.60873 7.59828C2.57482 7.59828 2.5383 7.59046 2.50438 7.57741C2.41047 7.53567 2.34786 7.44176 2.34786 7.33741V6.49479H0.260873C0.117392 6.49479 0 6.37739 0 6.23391V4.14693C0 4.00345 0.117392 3.88605 0.260873 3.88605H2.34786V3.04343C2.34786 2.93908 2.41047 2.84517 2.50438 2.80343C2.6009 2.76429 2.71048 2.78256 2.78613 2.85299L5.08181 4.99992C5.13398 5.04948 5.16529 5.11731 5.16529 5.19035V5.19049Z" fill="#79D13E"/>
<path d="M11.9366 0.5874C11.9288 0.576965 11.9158 0.56653 11.9053 0.556095C11.861 0.519573 11.801 0.496094 11.7384 0.496094H5.99915C5.85567 0.496094 5.73828 0.613486 5.73828 0.756967V9.88761C5.73828 10.0311 5.85567 10.1485 5.99915 10.1485H8.08614V11.2442C8.08614 11.3302 8.13049 11.4111 8.20092 11.4607C8.24527 11.4894 8.29484 11.505 8.34701 11.505C8.38093 11.505 8.41223 11.4998 8.44354 11.4868L11.8348 10.1302C11.9339 10.0911 11.9992 9.99457 11.9992 9.88762V0.756974C11.9992 0.691756 11.9757 0.634362 11.9365 0.58741L11.9366 0.5874ZM8.22179 2.40825C8.13831 2.4526 8.08614 2.5413 8.08614 2.63522V9.62662H6.25994V1.01789H10.7288L8.22179 2.40825ZM9.65138 7.01782C9.65138 7.1613 9.53399 7.27869 9.39051 7.27869C9.24702 7.27869 9.12963 7.1613 9.12963 7.01782V5.71345C9.12963 5.56997 9.24702 5.45258 9.39051 5.45258C9.53399 5.45258 9.65138 5.56997 9.65138 5.71345V7.01782Z" fill="#79D13E"/>
</g>
<defs>
<clipPath id="clip0_3916_301624">
<rect width="12" height="12" fill="white"/>
</clipPath>
</defs>
</svg>
