<svg width="12" height="12" viewBox="0 0 12 12" fill="none" xmlns="http://www.w3.org/2000/svg">
<path fill-rule="evenodd" clip-rule="evenodd" d="M6 1C3.23865 1 1 3.23865 1 6C1 8.76135 3.23865 11 6 11C8.76135 11 11 8.76135 11 6C11 3.23865 8.76135 1 6 1V1ZM4.14666 4.14666C4.34165 3.9512 4.65851 3.9512 4.85351 4.14666L6.00004 5.29319L7.14656 4.14666C7.34156 3.9512 7.65842 3.9512 7.85341 4.14666C8.04887 4.34165 8.04887 4.65851 7.85341 4.85351L6.70689 6.00004L7.85341 7.14656C8.04887 7.34156 8.04887 7.65842 7.85341 7.85341C7.65842 8.04887 7.34156 8.04887 7.14656 7.85341L6.00004 6.70689L4.85351 7.85341C4.65851 8.04887 4.34165 8.04887 4.14666 7.85341C3.9512 7.65842 3.9512 7.34156 4.14666 7.14656L5.29319 6.00004L4.14666 4.85351C3.9512 4.65851 3.9512 4.34165 4.14666 4.14666V4.14666Z" fill="#ED6B2D"/>
</svg>
