<svg width="12" height="12" viewBox="0 0 12 12" fill="none" xmlns="http://www.w3.org/2000/svg">
<path d="M8.25093 7.48544V4.51059C8.25093 3.92388 7.77432 3.44727 7.18761 3.44727H4.81136C4.4539 3.44727 4.13899 3.62316 3.94551 3.89325C3.8916 3.96871 3.84791 4.04985 3.815 4.13893C3.77131 4.25525 3.74805 4.38009 3.74805 4.51229V7.48714C3.74805 7.74985 3.9614 7.96205 4.22466 7.96205H4.5861L4.59348 8.06816L4.61107 8.31952L4.83349 11.4396C4.85505 11.7551 5.11832 11.9991 5.43493 11.9991H6.5635C6.88012 11.9991 7.1417 11.7551 7.16495 11.4396L7.41347 7.96364H7.77491C8.03762 7.96364 8.25153 7.75029 8.25153 7.48873L8.25093 7.48544Z" fill="#E93426"/>
<path d="M5.95668 0H6.03952C6.65346 0 7.1505 0.613941 7.1505 1.11098V1.73002C7.1505 2.34396 6.65288 2.841 6.03952 2.841H5.95668C5.34274 2.841 4.8457 2.22706 4.8457 1.73002V1.11098C4.8457 0.497038 5.34332 0 5.95668 0Z" fill="#E93426"/>
</svg>
