<svg width="12" height="12" viewBox="0 0 12 12" fill="none" xmlns="http://www.w3.org/2000/svg">
<g clip-path="url(#clip0_3916_301603)">
<path fill-rule="evenodd" clip-rule="evenodd" d="M6 0.5C2.96406 0.5 0.5 2.96453 0.5 6C0.5 9.03594 2.96453 11.5 6 11.5C9.03594 11.5 11.5 9.03547 11.5 6C11.5 2.96406 9.03547 0.5 6 0.5ZM6 1.40148C8.53797 1.40148 10.5985 3.46194 10.5985 6.00002C10.5985 8.53811 8.53809 10.5986 6 10.5986C3.46191 10.5986 1.40145 8.53811 1.40145 6.00002C1.40145 3.46194 3.46191 1.40148 6 1.40148ZM5.45512 3.55918V6.08369C5.45512 6.33242 5.65689 6.53467 5.90609 6.53467H8.86944C9.11816 6.53467 9.32041 6.3329 9.32041 6.08369C9.32041 5.83497 9.11864 5.63272 8.86944 5.63272H6.35658V3.55869C6.35658 3.30996 6.15481 3.10771 5.90561 3.10771C5.65688 3.10771 5.45463 3.30949 5.45463 3.55869L5.45512 3.55918Z" fill="#C32C1F"/>
</g>
<defs>
<clipPath id="clip0_3916_301603">
<rect width="12" height="12" fill="white"/>
</clipPath>
</defs>
</svg>
