<svg width="12" height="12" viewBox="0 0 12 12" fill="none" xmlns="http://www.w3.org/2000/svg">
<path d="M2.00015 10.5001C1.72406 10.5001 1.5 10.7242 1.5 11.0003C1.5 11.2764 1.72406 11.5 2.00015 11.5H9.99974C10.2758 11.5 10.4999 11.2764 10.4999 11.0003C10.4999 10.7242 10.2758 10.5001 9.99974 10.5001H9.48647C9.43397 9.36806 9.171 6.75662 7.87873 5.49983C9.10403 4.37433 9.40259 2.41718 9.47579 1.49988H9.99985C10.2759 1.49988 10.5 1.27581 10.5 0.999705C10.5 0.723602 10.2759 0.5 9.99985 0.5H2.00026C1.72417 0.5 1.50011 0.723602 1.50011 0.999705C1.50011 1.27581 1.72417 1.49988 2.00026 1.49988H2.52479C2.59791 2.41771 2.89651 4.3748 4.12185 5.49983C2.82946 6.75566 2.56655 9.36753 2.51411 10.5001H2.00015ZM5.19272 5.9466C5.35865 5.86316 5.46365 5.69534 5.4674 5.50971C5.47115 5.32455 5.37225 5.15251 5.21007 5.06251C3.94024 4.35843 3.61349 2.42196 3.52913 1.49985H8.47115C8.38677 2.42191 8.05959 4.35833 6.79021 5.06251C6.62802 5.15251 6.52865 5.32455 6.5324 5.50971C6.53615 5.69535 6.64162 5.86316 6.80756 5.9466C8.02578 6.56115 8.40738 9.1028 8.48514 10.5001H3.51504C3.59051 9.09992 3.97439 6.56114 5.19272 5.9466Z" fill="#F8D24A"/>
<path d="M5.99998 6.5C5.99998 6.5 4.5 7.70003 4.5 8.30005V9.99977H7.49996V8.30005C7.49996 7.70003 5.99998 6.5 5.99998 6.5Z" fill="#F8D24A"/>
</svg>
