<svg width="12" height="12" viewBox="0 0 12 12" fill="none" xmlns="http://www.w3.org/2000/svg">
<path d="M7.86084 7.22619V4.76894C7.86084 4.28431 7.46707 3.89062 6.98234 3.89062H5.01912C4.72379 3.89062 4.46361 4.03591 4.30376 4.25901C4.25923 4.32134 4.22313 4.38836 4.19594 4.46195C4.15985 4.55803 4.14062 4.66114 4.14062 4.77034V7.22759C4.14062 7.4446 4.31689 7.61988 4.5344 7.61988H4.83301L4.83911 7.70752L4.85364 7.91515L5.0374 10.4924C5.05521 10.753 5.27272 10.9545 5.5343 10.9545H6.46671C6.72829 10.9545 6.9444 10.753 6.96362 10.4924L7.16894 7.6212H7.46756C7.6846 7.6212 7.86133 7.44496 7.86133 7.22891L7.86084 7.22619Z" fill="#4CA730"/>
<path d="M5.9667 1.04297H6.03514C6.54237 1.04297 6.95302 1.55009 6.95302 1.96065V2.47198C6.95302 2.9791 6.54189 3.38966 6.03514 3.38966H5.9667C5.45947 3.38966 5.04883 2.88254 5.04883 2.47198V1.96065C5.04883 1.45353 5.45995 1.04297 5.9667 1.04297V1.04297Z" fill="#4CA730"/>
</svg>
