<svg width="12" height="12" viewBox="0 0 12 12" fill="none" xmlns="http://www.w3.org/2000/svg">
<path d="M6.66683 9.33298C6.48932 9.33424 6.31932 9.26486 6.19308 9.13986L3.5262 6.47298H3.52683C3.26808 6.21298 3.26808 5.79298 3.52683 5.53298L6.19371 2.8661L6.19308 2.86673C6.45807 2.63985 6.85183 2.65548 7.09807 2.90173C7.34433 3.14799 7.35995 3.54173 7.13307 3.80672L4.93995 5.99984L7.13307 8.19296C7.32495 8.38296 7.38307 8.66984 7.28057 8.91922C7.1787 9.16859 6.93621 9.33234 6.66683 9.33296L6.66683 9.33298Z" fill="currentColor"/>
<path d="M10.6668 6.66677H3.99989C3.63176 6.66677 3.33301 6.36802 3.33301 5.99989C3.33301 5.63176 3.63176 5.33301 3.99989 5.33301H10.6668C11.0349 5.33301 11.333 5.63176 11.333 5.99989C11.333 6.36802 11.0349 6.66677 10.6668 6.66677Z" fill="currentColor"/>
<path d="M1.333 11.333C0.964876 11.333 0.666748 11.0349 0.666748 10.6668V1.333C0.666748 0.964876 0.964876 0.666748 1.333 0.666748C1.70113 0.666748 1.99988 0.964876 1.99988 1.333V10.6668C1.99988 10.8436 1.92988 11.013 1.80488 11.138C1.67987 11.263 1.50987 11.333 1.333 11.333Z" fill="currentColor"/>
</svg>
